<svg aria-hidden="true" style="position:absolute;width:0;height:0;overflow:hidden" xmlns="http://www.w3.org/2000/svg"><defs><symbol id="icon-Coctail" viewBox="0 0 24 32"><path d="M11.823 13.86 1.721 15.692l3.792 14.873a.94.94 0 0 0 .898.696h10.99a.94.94 0 0 0 .898-.696l3.792-14.873-10.266-1.832zm-1.75-2.748c.506 0 .916-.41.916-.916V.916a.916.916 0 1 0-1.832 0v9.28c0 .506.41.916.916.916zm3.664 0c.506 0 .916-.41.916-.916V.916a.916.916 0 1 0-1.832 0v9.28c0 .506.41.916.916.916z"/><path d="M23.3 11.204c-.44-.22-.989-.037-1.227.421l-1.117 2.235-2.784-4.176a.932.932 0 0 0-.769-.403H6.413a.932.932 0 0 0-.769.403L2.86 13.86l-1.117-2.235c-.238-.458-.788-.641-1.227-.421-.458.238-.641.788-.421 1.227l1.63 3.26h20.368l1.63-3.26c.22-.44.037-.989-.421-1.227zM11.907 20.27c-1.515 0-2.748 1.232-2.748 2.747s1.233 2.748 2.748 2.748 2.747-1.232 2.747-2.748a2.75 2.75 0 0 0-2.747-2.747z"/></symbol><symbol id="icon-AppStore-btn" viewBox="0 0 32 32"><path d="M0 7.861h32v16.277H0V7.861z"/></symbol><symbol id="icon-cash-back" viewBox="0 0 32 32"><path d="M25.872 22.088H9.122a.679.679 0 0 1-.679-.679v-7.824c0-.375.304-.679.679-.679h16.75c.375 0 .679.304.679.679v7.824a.679.679 0 0 1-.679.679z"/><path d="m8.462 21.127.961.961h16.449a.679.679 0 0 0 .679-.679v-7.824a.679.679 0 0 0-.679-.679H9.122a.679.679 0 0 0-.679.679v7.502l.018.04z"/><path d="M24.852 21.07H8.102a.679.679 0 0 1-.679-.679v-7.824c0-.375.304-.679.679-.679h16.75c.375 0 .679.304.679.679v7.824a.679.679 0 0 1-.679.679z"/><path d="m7.442 20.109.961.961h16.449a.679.679 0 0 0 .679-.679v-7.824a.679.679 0 0 0-.679-.679H8.102a.679.679 0 0 0-.679.679v7.502l.018.04z"/><path d="M23.835 20.052H7.085a.679.679 0 0 1-.679-.679v-7.824c0-.375.304-.679.679-.679h16.75c.375 0 .679.304.679.679v7.824a.679.679 0 0 1-.679.679z"/><path d="m6.425 19.09.961.961h16.449a.679.679 0 0 0 .679-.679v-7.824a.679.679 0 0 0-.679-.679H7.085a.679.679 0 0 0-.679.679v7.502l.018.04z"/><path d="M22.878 19.093H6.128a.679.679 0 0 1-.679-.679V10.59c0-.375.304-.679.679-.679h16.75c.375 0 .679.304.679.679v7.824a.679.679 0 0 1-.679.679z"/><path d="M22.533 11.853a.978.978 0 0 1-.918-.919.948.948 0 0 1 .035-.312H7.355c.028.099.04.204.035.312a.978.978 0 0 1-.918.919.965.965 0 0 1-.468-.092v5.484a.965.965 0 0 1 .468-.092.978.978 0 0 1 .883 1.232H21.65a.975.975 0 0 1-.035-.312.979.979 0 0 1 .918-.92.963.963 0 0 1 .468.092v-5.484a.965.965 0 0 1-.468.092z"/><path d="M14.502 16.853a2.35 2.35 0 1 0 0-4.702 2.35 2.35 0 0 0 0 4.702zM11.27 11.485H7.659v1.039h3.611v-1.039zM21.344 16.481h-3.611v1.039h3.611v-1.039z"/><path d="M31.078 7.253a1.404 1.404 0 0 0-1.692.608 15.688 15.688 0 0 0-4.151-4.524C22.53 1.352 19.322.303 15.957.303S9.385 1.352 6.679 3.337a15.63 15.63 0 0 0-5.624 7.717 1.405 1.405 0 0 0 2.666.884 12.838 12.838 0 0 1 4.62-6.337c2.22-1.629 4.854-2.49 7.616-2.49s5.396.861 7.616 2.49a12.902 12.902 0 0 1 3.236 3.436 1.404 1.404 0 0 0-.69 2.708l2.924 1.07.021.007.074.024a2.072 2.072 0 0 0 .116.028l.039.008c.027.005.055.008.082.011l.034.004c.038.003.077.005.116.005.036 0 .073-.002.109-.004l.026-.003.083-.01.032-.006c.026-.005.051-.009.076-.015a1.47 1.47 0 0 0 .106-.03l.011-.003.02-.008a1.461 1.461 0 0 0 .217-.097l.027-.015a1.533 1.533 0 0 0 .201-.143l.034-.029c.024-.021.046-.044.069-.066l.019-.019c.029-.031.057-.063.083-.097l.005-.007a1.603 1.603 0 0 0 .082-.122c.016-.027.032-.054.046-.082l.018-.035c.013-.026.024-.053.036-.08l.016-.038a.07.07 0 0 0 .005-.013l1.07-2.924a1.404 1.404 0 0 0-.836-1.801zM.922 24.747a1.402 1.402 0 0 0 1.692-.608 15.688 15.688 0 0 0 4.151 4.524c2.705 1.985 5.913 3.034 9.278 3.034s6.572-1.049 9.278-3.034a15.63 15.63 0 0 0 5.624-7.717 1.405 1.405 0 0 0-2.666-.884 12.838 12.838 0 0 1-4.62 6.337c-2.22 1.629-4.854 2.49-7.616 2.49s-5.396-.861-7.616-2.49a12.902 12.902 0 0 1-3.236-3.436 1.404 1.404 0 0 0 .69-2.708l-2.924-1.07-.021-.007a1.048 1.048 0 0 0-.114-.034 2.072 2.072 0 0 0-.076-.017l-.039-.008c-.027-.005-.055-.008-.082-.011l-.034-.004a1.479 1.479 0 0 0-.116-.005c-.036 0-.073.002-.109.004l-.026.003a2.347 2.347 0 0 0-.083.01l-.032.006c-.026.005-.051.009-.076.015a1.47 1.47 0 0 0-.106.03l-.011.003-.02.008a1.461 1.461 0 0 0-.092.036l-.038.017-.087.044-.027.015a1.533 1.533 0 0 0-.201.143l-.034.029c-.024.021-.046.044-.069.066l-.019.019a1.518 1.518 0 0 0-.083.097l-.005.007a2.016 2.016 0 0 0-.082.122c-.016.027-.032.054-.046.082l-.018.035c-.013.026-.024.053-.036.08l-.016.038a.07.07 0 0 0-.005.013l-1.07 2.924a1.404 1.404 0 0 0 .836 1.801z"/></symbol><symbol id="icon-fast-delivery" viewBox="0 0 32 32"><path fill="#e0e2e5" style="fill:var(--color1, #e0e2e5)" d="M25.889 18H21a.498.498 0 0 1-.5-.5.498.498 0 0 1 .5-.5h4.889a.498.498 0 0 1 .5.5.498.498 0 0 1-.5.5z"/><path fill="#93573d" style="fill:var(--color2, #93573d)" d="m15 11.5 1 12v1h6v-1l1-12h-8z"/><path fill="#fdd14b" style="fill:var(--color3, #fdd14b)" d="M10 11.5V11H8v1.5H6v5h4V17h2v-5.5h-2z"/><path fill="#e4bc43" style="fill:var(--color4, #e4bc43)" d="M8 19a.498.498 0 0 1-.5-.5V13a.498.498 0 0 1 .5-.5.5.5 0 0 1 .5.5v5.5a.498.498 0 0 1-.5.5zM10.072 20a.5.5 0 0 1-.5-.496l-.071-7.5a.5.5 0 0 1 1-.01l.071 7.5a.5.5 0 0 1-.495.505h-.005z"/><path fill="#e74444" style="fill:var(--color5, #e74444)" d="m5.5 16.5 1 7v1h6v-8h-7z"/><path fill="#e0e2e5" style="fill:var(--color1, #e0e2e5)" d="M29 18h-1a.498.498 0 0 1-.5-.5.498.498 0 0 1 .5-.5h1a.498.498 0 0 1 .5.5.498.498 0 0 1-.5.5z"/><path fill="#a4d4f4" style="fill:var(--color6, #a4d4f4)" d="m23 11.5-.167 2h-7.666l-.167-2h8z"/><path fill="#e0e2e5" style="fill:var(--color1, #e0e2e5)" d="M14.029 8.5a.505.505 0 0 1-.441-.264.507.507 0 0 1 .025-.513l.475-.713a.503.503 0 0 0-.116-.678l-.486-.365a1.5 1.5 0 0 1-.348-2.032l.475-.713a.518.518 0 0 1 .318-.213.492.492 0 0 1 .375.074.49.49 0 0 1 .213.318.492.492 0 0 1-.075.375l-.475.713a.503.503 0 0 0 .116.678l.486.365a1.506 1.506 0 0 1 .348 2.032l-.475.713a.505.505 0 0 1-.416.223zM10.029 8.5a.505.505 0 0 1-.441-.264.507.507 0 0 1 .025-.513l.475-.713a.503.503 0 0 0-.116-.678l-.486-.365a1.5 1.5 0 0 1-.348-2.032l.475-.713a.503.503 0 0 1 .693-.139.503.503 0 0 1 .139.693l-.475.713a.503.503 0 0 0 .116.678l.486.365a1.506 1.506 0 0 1 .348 2.032l-.475.713a.505.505 0 0 1-.416.223zM17.973 8.5a.507.507 0 0 1-.441-.264.507.507 0 0 1 .025-.513l.475-.713a.503.503 0 0 0-.116-.678l-.486-.365a1.506 1.506 0 0 1-.348-2.032l.475-.713a.503.503 0 0 1 .693-.139.518.518 0 0 1 .213.318.492.492 0 0 1-.075.375l-.475.713a.503.503 0 0 0 .116.678l.486.365a1.506 1.506 0 0 1 .348 2.032l-.475.713a.5.5 0 0 1-.418.223zM30.5 15H25a.498.498 0 0 1-.5-.5.498.498 0 0 1 .5-.5h5.5a.498.498 0 0 1 .5.5.498.498 0 0 1-.5.5zM27 21h-3a.498.498 0 0 1-.5-.5.498.498 0 0 1 .5-.5h3a.498.498 0 0 1 .5.5.498.498 0 0 1-.5.5z"/><path fill="#c2c5c6" style="fill:var(--color7, #c2c5c6)" d="M30.5 29h-29a.498.498 0 0 1-.5-.5.498.498 0 0 1 .5-.5h29a.498.498 0 0 1 .5.5.498.498 0 0 1-.5.5z"/><path fill="#fdd14b" style="fill:var(--color3, #fdd14b)" d="M1.5 23.5h25v1a.997.997 0 0 1-1 1h-23a.997.997 0 0 1-1-1v-1z"/><path fill="#6a7073" style="fill:var(--color8, #6a7073)" d="M21.5 28.5a3 3 0 1 0 0-6 3 3 0 0 0 0 6z"/><path fill="#99a2a7" style="fill:var(--color9, #99a2a7)" d="M21.5 26.5a1 1 0 1 0 0-2 1 1 0 0 0 0 2z"/><path fill="#6a7073" style="fill:var(--color8, #6a7073)" d="M6.5 28.5a3 3 0 1 0 0-6 3 3 0 0 0 0 6z"/><path fill="#99a2a7" style="fill:var(--color9, #99a2a7)" d="M6.5 26.5a1 1 0 1 0 0-2 1 1 0 0 0 0 2z"/><path fill="#ea8333" style="fill:var(--color10, #ea8333)" d="M9.5 21.5h9v1a.997.997 0 0 1-1 1h-7a.997.997 0 0 1-1-1v-1z"/><path fill="#794832" style="fill:var(--color11, #794832)" d="M18.091 19.5c.502 0 .909.448.909 1s-.407 1-.909 1H9.909c-.502 0-.909-.448-.909-1s.407-1 .909-1h8.182z"/><path fill="#fdd14b" style="fill:var(--color3, #fdd14b)" d="M10 17.5h8v2h-8v-2z"/><path fill="#3ba673" style="fill:var(--color12, #3ba673)" d="M19.5 18c0 .828-.704 1.5-1.571 1.5a1.587 1.587 0 0 1-1.31-.671 1.623 1.623 0 0 1-2.046.493 1.615 1.615 0 0 1-.574-.493 1.623 1.623 0 0 1-2.046.493 1.615 1.615 0 0 1-.574-.493 1.593 1.593 0 0 1-1.31.671c-.868 0-1.571-.672-1.571-1.5a.498.498 0 0 1 .5-.5h10a.498.498 0 0 1 .5.5z"/><path fill="#e74444" style="fill:var(--color5, #e74444)" d="M18.5 13.5v-4a.497.497 0 0 1 .314-.464l2.5-1a.504.504 0 0 1 .544.114.492.492 0 0 1 .142.356.507.507 0 0 1-.314.458l-2.186.874V13.5h-1z"/><path fill="#ce3536" style="fill:var(--color13, #ce3536)" d="M18.5 11.5h1v2h-1v-2z"/></symbol><symbol id="icon-Close" viewBox="0 0 32 32"><path fill="#f6762c" style="fill:var(--color14, #f6762c)" d="M11.045 1.455H3.682c-1.023 0-1.892.386-2.608 1.157S0 4.32 0 5.422v7.934c0 1.102.358 2.039 1.074 2.81s1.585 1.157 2.608 1.157h4.295c.511 0 .946.193 1.304.579s.537.854.537 1.405v.661c0 1.46-.479 2.706-1.438 3.74s-2.115 1.549-3.471 1.549H3.682c-.333 0-.62.131-.863.393s-.364.572-.364.93v2.645c0 .358.122.668.364.93s.53.393.863.393h1.227c1.33 0 2.598-.279 3.806-.837s2.253-1.312 3.135-2.263c.882-.951 1.582-2.076 2.099-3.378s.777-2.669.777-4.101V5.424c0-1.102-.358-2.039-1.074-2.81s-1.585-1.157-2.608-1.157zM30.833 2.611c-.716-.771-1.585-1.157-2.608-1.157h-7.363c-1.023 0-1.892.386-2.608 1.157s-1.073 1.708-1.073 2.81v7.934c0 1.102.358 2.039 1.073 2.81s1.585 1.157 2.608 1.157h4.295c.511 0 .946.193 1.304.578s.537.854.537 1.405v.661c0 1.46-.479 2.706-1.438 3.74s-2.115 1.549-3.47 1.549h-1.227c-.332 0-.62.131-.863.393s-.365.572-.365.93v2.645c0 .358.122.668.365.93s.53.393.863.393h1.227c1.329 0 2.598-.279 3.806-.837s2.253-1.312 3.135-2.263c.882-.951 1.582-2.077 2.1-3.378s.777-2.669.777-4.101V5.422c0-1.102-.358-2.039-1.074-2.81z"/></symbol><symbol id="icon-Open" viewBox="0 0 32 32"><path fill="#f6762c" style="fill:var(--color14, #f6762c)" d="M20.864 1.455h7.363c1.023 0 1.892.386 2.608 1.157s1.074 1.708 1.074 2.81v7.934c0 1.102-.358 2.039-1.074 2.81s-1.585 1.157-2.608 1.157h-4.295c-.511 0-.946.193-1.304.579s-.537.854-.537 1.405v.661c0 1.46.479 2.706 1.438 3.74s2.115 1.549 3.471 1.549h1.227c.333 0 .62.131.863.393s.364.572.364.93v2.645c0 .358-.121.668-.364.93s-.53.393-.863.393H27c-1.33 0-2.598-.279-3.806-.837s-2.253-1.312-3.135-2.263c-.882-.951-1.582-2.076-2.099-3.378s-.777-2.669-.777-4.101V5.424c0-1.102.358-2.039 1.074-2.81s1.585-1.157 2.608-1.157zM1.076 2.611c.716-.771 1.585-1.157 2.608-1.157h7.363c1.023 0 1.892.386 2.608 1.157s1.073 1.708 1.073 2.81v7.934c0 1.102-.358 2.039-1.073 2.81s-1.585 1.157-2.608 1.157H6.752c-.511 0-.946.193-1.304.578s-.537.854-.537 1.405v.661c0 1.46.479 2.706 1.438 3.74s2.115 1.549 3.47 1.549h1.227c.332 0 .62.131.863.393s.365.572.365.93v2.645c0 .358-.122.668-.365.93s-.53.393-.863.393H9.819c-1.329 0-2.598-.279-3.806-.837s-2.253-1.312-3.135-2.263c-.882-.951-1.582-2.077-2.1-3.378s-.777-2.669-.777-4.101V5.422c0-1.102.358-2.039 1.074-2.81z"/></symbol><symbol id="icon-Car" viewBox="0 0 32 32"><path fill="#289bc3" style="fill:var(--color15, #289bc3)" d="M23.015 24.954v-13.6H2.092v13.6c0 .578.468 1.046 1.046 1.046h18.831c.578 0 1.046-.468 1.046-1.046z"/><path fill="#32283c" style="fill:var(--color16, #32283c)" d="M8.37 22.861H6.278a3.138 3.138 0 0 0 0 6.276H8.37a3.138 3.138 0 0 0 0-6.276zM27.199 22.861h-2.092a3.138 3.138 0 0 0 0 6.276h2.092a3.138 3.138 0 0 0 0-6.276z"/><path fill="#555a6e" style="fill:var(--color17, #555a6e)" d="M25.107 29.138a3.138 3.138 0 1 0 0-6.276 3.138 3.138 0 0 0 0 6.276z"/><path fill="#e6e6eb" style="fill:var(--color18, #e6e6eb)" d="M25.106 27.046a1.046 1.046 0 1 0 0-2.091 1.046 1.046 0 0 0 0 2.091z"/><path fill="#32283c" style="fill:var(--color16, #32283c)" d="M18.831 22.861h-2.092a3.138 3.138 0 0 0 0 6.276h2.092a3.138 3.138 0 0 0 0-6.276z"/><path fill="#a5c3dc" style="fill:var(--color19, #a5c3dc)" d="M29.294 12.4H13.602c-.578 0-1.046.468-1.046 1.046v1.046h16.738a1.046 1.046 0 1 0 0-2.092z"/><path fill="#d7e6f0" style="fill:var(--color20, #d7e6f0)" d="M18.832 12.4h-5.231c-.578 0-1.046.468-1.046 1.046v1.046h6.277a1.046 1.046 0 1 0 0-2.092z"/><path fill="#463c4b" style="fill:var(--color21, #463c4b)" d="M12.555 14.492h16.738v5.231H12.555v-5.231z"/><path fill="#555a6e" style="fill:var(--color17, #555a6e)" d="M12.555 14.492h6.277v5.231h-6.277v-5.231z"/><path fill="#a5c3dc" style="fill:var(--color19, #a5c3dc)" d="M30.34 26H13.602a1.046 1.046 0 0 1-1.046-1.046v-5.231h16.738c1.155 0 2.092.937 2.092 2.092v3.138c0 .578-.468 1.046-1.046 1.046z"/><path fill="#d7e6f0" style="fill:var(--color20, #d7e6f0)" d="M19.878 26h-6.277a1.046 1.046 0 0 1-1.046-1.046v-5.231h6.277c1.155 0 2.092.937 2.092 2.092v3.138c0 .578-.468 1.046-1.046 1.046z"/><path fill="#555a6e" style="fill:var(--color17, #555a6e)" d="M23.451 21.815h5.405a1.481 1.481 0 1 1 0 2.964h-5.405a1.482 1.482 0 1 1 0-2.964z"/><path fill="#00d2d2" style="fill:var(--color22, #00d2d2)" d="M23.453 24.082a.785.785 0 1 0 0-1.57.785.785 0 0 0 0 1.57zM28.854 24.082a.785.785 0 1 0 0-1.57.785.785 0 0 0 0 1.57z"/><path fill="#a5c3dc" style="fill:var(--color19, #a5c3dc)" d="M9.938 2.462H6.8a.523.523 0 1 0 0 1.046 3.666 3.666 0 0 1 3.662 3.662c0 .289.234.523.523.523h3.138a.523.523 0 0 0 .523-.523 4.713 4.713 0 0 0-4.708-4.708z"/><path fill="#a5c3dc" style="fill:var(--color19, #a5c3dc)" d="M18.307 2.462h-3.138a4.713 4.713 0 0 0-4.708 4.708c0 .289.234.523.523.523h3.138a.523.523 0 0 0 .523-.523 3.666 3.666 0 0 1 3.661-3.662.523.523 0 1 0 0-1.046z"/><path fill="#a5c3dc" style="fill:var(--color19, #a5c3dc)" d="M20.4 2.462h-3.138a.523.523 0 1 0 0 1.046c.865 0 1.569.704 1.569 1.569s-.704 1.569-1.569 1.569a.523.523 0 1 0 0 1.046H20.4c1.442 0 2.615-1.173 2.615-2.615S21.842 2.462 20.4 2.462zM7.845 6.646c-.865 0-1.569-.704-1.569-1.569s.704-1.569 1.569-1.569a.523.523 0 1 0 0-1.046H4.707c-1.442 0-2.615 1.173-2.615 2.615s1.173 2.615 2.615 2.615h3.138a.523.523 0 1 0 0-1.046z"/><path fill="#289bc3" style="fill:var(--color15, #289bc3)" d="M24.061 7.692H1.046C.468 7.692 0 8.16 0 8.738v1.569c0 .578.468 1.046 1.046 1.046h23.015c.578 0 1.046-.468 1.046-1.046V8.738c0-.578-.468-1.046-1.046-1.046z"/><path fill="#00d2d2" style="fill:var(--color22, #00d2d2)" d="M11.507 26H3.138a1.046 1.046 0 0 1-1.046-1.046V14.493h10.461v10.461c0 .578-.468 1.046-1.046 1.046zM12.554 7.692H1.046C.468 7.692 0 8.16 0 8.738v1.569c0 .578.468 1.046 1.046 1.046h11.508c.578 0 1.046-.468 1.046-1.046V8.738c0-.578-.468-1.046-1.046-1.046z"/><path fill="#d7e6f0" style="fill:var(--color20, #d7e6f0)" d="M7.322 10.308c0 .578.468 1.046 1.046 1.046H5.23a1.046 1.046 0 0 1-1.046-1.046V8.739c0-.578.468-1.046 1.046-1.046h3.138c-.578 0-1.046.468-1.046 1.046v1.569z"/><path fill="#a5c3dc" style="fill:var(--color19, #a5c3dc)" d="M17.787 10.308c0 .578-.468 1.046-1.046 1.046h3.138c.578 0 1.046-.468 1.046-1.046V8.739c0-.578-.468-1.046-1.046-1.046h-3.138c.578 0 1.046.468 1.046 1.046v1.569z"/><path fill="#d7e6f0" style="fill:var(--color20, #d7e6f0)" d="M17.263 7.692h-6.8v-.523a4.713 4.713 0 0 1 4.708-4.708h2.092c1.442 0 2.615 1.173 2.615 2.615s-1.173 2.615-2.615 2.615zm-5.716-1.046h5.717c.865 0 1.569-.704 1.569-1.569s-.704-1.569-1.569-1.569h-2.092a3.667 3.667 0 0 0-3.624 3.138z"/><path fill="#d7e6f0" style="fill:var(--color20, #d7e6f0)" d="M11.507 7.692h-6.8c-1.442 0-2.615-1.173-2.615-2.615s1.173-2.615 2.615-2.615h2.092a4.713 4.713 0 0 1 4.708 4.708v.523zm-6.8-4.184c-.865 0-1.569.704-1.569 1.569s.704 1.569 1.569 1.569h5.717A3.667 3.667 0 0 0 6.8 3.508H4.708z"/><path fill="#555a6e" style="fill:var(--color17, #555a6e)" d="M16.739 29.138a3.138 3.138 0 1 0 0-6.276 3.138 3.138 0 0 0 0 6.276z"/><path fill="#e6e6eb" style="fill:var(--color18, #e6e6eb)" d="M16.738 27.046a1.046 1.046 0 1 0 0-2.091 1.046 1.046 0 0 0 0 2.091z"/><path fill="#555a6e" style="fill:var(--color17, #555a6e)" d="M6.278 29.138a3.138 3.138 0 1 0 0-6.276 3.138 3.138 0 0 0 0 6.276z"/><path fill="#e6e6eb" style="fill:var(--color18, #e6e6eb)" d="M6.275 27.046a1.046 1.046 0 1 0 0-2.091 1.046 1.046 0 0 0 0 2.091z"/></symbol><symbol id="icon-Mastercard" viewBox="0 0 32 32"><path fill="#ffb600" style="fill:var(--color23, #ffb600)" d="M31.655 16.317c0 5.108-4.126 9.284-9.283 9.284-5.108 0-9.284-4.175-9.284-9.284s4.126-9.284 9.234-9.284c5.207 0 9.333 4.175 9.333 9.284z"/><path fill="#f7981d" style="fill:var(--color24, #f7981d)" d="M22.372 7.033c5.108 0 9.283 4.175 9.283 9.284s-4.126 9.284-9.283 9.284c-5.108 0-9.284-4.175-9.284-9.284z"/><path fill="#ff8500" style="fill:var(--color25, #ff8500)" d="M22.372 7.033c5.108 0 9.284 4.175 9.284 9.284s-4.126 9.284-9.284 9.284z"/><path fill="#ff5050" style="fill:var(--color26, #ff5050)" d="M9.896 7.033C4.837 7.082.711 11.208.711 16.317s4.126 9.284 9.284 9.284c2.407 0 4.568-.933 6.238-2.407.344-.295.639-.639.933-.982H15.25a11.535 11.535 0 0 1-.688-.933h3.291c.196-.295.393-.639.54-.982h-4.372a5.899 5.899 0 0 1-.393-.982h5.108c.295-.933.491-1.916.491-2.947 0-.688-.098-1.326-.196-1.965h-5.698c.049-.344.147-.639.246-.982h5.108a5.83 5.83 0 0 0-.393-.982h-4.322c.147-.344.344-.639.54-.982h3.291a4.622 4.622 0 0 0-.737-.982h-1.817c.295-.344.589-.639.933-.933-1.621-1.523-3.831-2.407-6.238-2.407 0-.098 0-.098-.049-.098z"/><path fill="#e52836" style="fill:var(--color27, #e52836)" d="M.711 16.317c0 5.108 4.126 9.284 9.284 9.284 2.407 0 4.568-.933 6.238-2.407.344-.295.639-.639.933-.982H15.25a11.535 11.535 0 0 1-.688-.933h3.291c.196-.295.393-.639.54-.982h-4.372a5.899 5.899 0 0 1-.393-.982h5.108c.295-.933.491-1.916.491-2.947 0-.688-.098-1.326-.196-1.965h-5.698c.049-.344.147-.639.246-.982h5.108a5.83 5.83 0 0 0-.393-.982h-4.322c.147-.344.344-.639.54-.982h3.291a4.622 4.622 0 0 0-.737-.982h-1.817c.295-.344.589-.639.933-.933-1.621-1.523-3.831-2.407-6.238-2.407h-.049z"/><path fill="#cb2026" style="fill:var(--color28, #cb2026)" d="M9.995 25.6c2.407 0 4.568-.933 6.238-2.407.344-.295.639-.639.933-.982H15.25a11.535 11.535 0 0 1-.688-.933h3.291c.196-.295.393-.639.54-.982h-4.372a5.899 5.899 0 0 1-.393-.982h5.108c.295-.933.491-1.916.491-2.947 0-.688-.098-1.326-.196-1.965h-5.698c.049-.344.147-.639.246-.982h5.108a5.83 5.83 0 0 0-.393-.982h-4.322c.147-.344.344-.639.54-.982h3.291a4.622 4.622 0 0 0-.737-.982h-1.817c.295-.344.589-.639.933-.933-1.621-1.523-3.831-2.407-6.238-2.407h-.049z"/><path fill="#fff" style="fill:var(--color29, #fff)" d="m13.284 18.673.147-.835c-.049 0-.147.049-.246.049-.344 0-.393-.196-.344-.295l.295-1.719h.54l.147-.933h-.491l.098-.589h-.982s-.589 3.242-.589 3.635c0 .589.344.835.786.835.295 0 .54-.098.639-.147zM13.631 17.101c0 1.375.933 1.719 1.719 1.719.737 0 1.031-.147 1.031-.147l.196-.933s-.54.246-1.031.246c-1.081 0-.884-.786-.884-.786h2.014s.147-.639.147-.884c0-.639-.344-1.425-1.424-1.425-1.031-.098-1.768.982-1.768 2.21zm1.719-1.424c.54 0 .442.639.442.688h-1.081c0-.049.098-.688.639-.688zM21.593 18.673l.196-1.081s-.491.246-.835.246c-.688 0-.982-.54-.982-1.13 0-1.179.589-1.817 1.277-1.817.491 0 .884.295.884.295l.147-1.031s-.589-.246-1.13-.246c-1.13 0-2.259.982-2.259 2.849 0 1.228.589 2.063 1.768 2.063.393 0 .933-.147.933-.147zM7.883 14.793c-.688 0-1.179.196-1.179.196l-.147.835s.442-.196 1.081-.196c.344 0 .639.049.639.344 0 .196-.049.246-.049.246h-.442c-.835 0-1.768.344-1.768 1.474 0 .884.589 1.081.933 1.081.688 0 .982-.442 1.032-.442l-.049.393h.884l.393-2.702c0-1.179-.982-1.228-1.326-1.228zm.197 2.21c0 .147-.098.933-.688.933-.295 0-.393-.246-.393-.393 0-.246.147-.589.884-.589.147.049.196.049.196.049zM10.143 18.772c.246 0 1.474.049 1.474-1.277 0-1.228-1.179-.982-1.179-1.474 0-.246.196-.344.54-.344.147 0 .688.049.688.049l.147-.884s-.344-.098-.933-.098c-.737 0-1.474.295-1.474 1.277 0 1.13 1.228 1.032 1.228 1.474 0 .295-.344.344-.589.344-.442 0-.884-.147-.884-.147l-.147.884c.049.098.295.196 1.13.196zM29.745 14.007l-.196 1.326s-.393-.491-.933-.491c-.884 0-1.67 1.081-1.67 2.358 0 .786.393 1.621 1.228 1.621.589 0 .933-.393.933-.393l-.049.344h.982l.737-4.715-1.032-.049zm-.442 2.603c0 .54-.246 1.228-.786 1.228-.344 0-.54-.295-.54-.786 0-.786.344-1.277.786-1.277.344 0 .54.246.54.835zM2.532 18.723l.589-3.537.098 3.537h.688l1.277-3.537-.54 3.537h1.032l.786-4.715H4.841l-.982 2.898-.049-2.898H2.386L1.6 18.723h.933zM17.759 18.722c.295-1.621.344-2.947 1.032-2.702.098-.639.246-.884.344-1.13h-.196c-.442 0-.786.589-.786.589l.098-.54h-.933l-.639 3.831h1.081v-.049zM23.852 14.793c-.688 0-1.179.196-1.179.196l-.147.835s.442-.196 1.081-.196c.344 0 .639.049.639.344 0 .196-.049.246-.049.246h-.442c-.835 0-1.768.344-1.768 1.474 0 .884.589 1.081.933 1.081.688 0 .982-.442 1.032-.442l-.049.393h.884l.393-2.702c.049-1.179-.982-1.228-1.326-1.228zm.245 2.21c0 .147-.098.933-.688.933-.295 0-.393-.246-.393-.393 0-.246.147-.589.884-.589.147.049.147.049.196.049zM26.009 18.722c.295-1.621.344-2.947 1.032-2.702.098-.639.246-.884.344-1.13h-.196c-.442 0-.786.589-.786.589l.098-.54h-.933l-.639 3.831h1.081v-.049z"/><path fill="#dce5e5" style="fill:var(--color30, #dce5e5)" d="M11.763 17.986c0 .589.344.835.786.835.344 0 .639-.098.737-.147l.147-.835c-.049 0-.147.049-.246.049-.344 0-.393-.196-.344-.295l.295-1.719h.54l.147-.933h-.491l.098-.589zM14.12 17.101c0 1.375.442 1.719 1.228 1.719.737 0 1.031-.147 1.031-.147l.196-.933s-.54.246-1.031.246c-1.081 0-.884-.786-.884-.786h2.014s.147-.639.147-.884c0-.639-.344-1.425-1.424-1.425-1.031-.098-1.277.982-1.277 2.21zm1.228-1.424c.54 0 .639.639.639.688H14.71c0-.049.098-.688.639-.688zM21.592 18.673l.196-1.081s-.491.246-.835.246c-.688 0-.982-.54-.982-1.13 0-1.179.589-1.817 1.277-1.817.491 0 .884.295.884.295l.147-1.031s-.589-.246-1.13-.246c-1.13 0-1.768.982-1.768 2.849 0 1.228.098 2.063 1.277 2.063.393 0 .933-.147.933-.147zM6.557 15.873s.442-.196 1.081-.196c.344 0 .639.049.639.344 0 .196-.049.246-.049.246h-.442c-.835 0-1.768.344-1.768 1.474 0 .884.589 1.081.933 1.081.688 0 .982-.442 1.032-.442l-.049.393h.884l.393-2.702c0-1.13-.982-1.179-1.375-1.179l-1.277.982zm2.014 1.13c0 .147-.589.933-1.179.933-.295 0-.393-.246-.393-.393 0-.246.147-.589.884-.589.147.049.688.049.688.049zM9.063 18.673s.295.098 1.13.098c.246 0 1.474.049 1.474-1.277 0-1.228-1.179-.982-1.179-1.474 0-.246.196-.344.54-.344.147 0 .688.049.688.049l.147-.884s-.344-.098-.933-.098c-.737 0-.982.295-.982 1.277 0 1.13.737 1.032.737 1.474 0 .295-.344.344-.589.344zM29.547 15.333s-.393-.491-.933-.491c-.884 0-1.179 1.081-1.179 2.358 0 .786-.098 1.621.737 1.621.589 0 .933-.393.933-.393l-.049.344h.982l.737-4.715-1.228 1.277zm-.05 1.277c0 .54-.442 1.228-.982 1.228-.344 0-.54-.295-.54-.786 0-.786.344-1.277.786-1.277.344 0 .737.246.737.835zM2.532 18.723l.589-3.537.098 3.537h.688l1.277-3.537-.54 3.537h1.032l.786-4.715H5.234l-1.375 2.898-.049-2.898h-.54L1.6 18.723h.933zM16.727 18.722h1.032c.295-1.621.344-2.947 1.032-2.702.098-.639.246-.884.344-1.13h-.196c-.442 0-.786.589-.786.589l.098-.54zM22.526 15.873s.442-.196 1.081-.196c.344 0 .639.049.639.344 0 .196-.049.246-.049.246h-.442c-.835 0-1.768.344-1.768 1.474 0 .884.589 1.081.933 1.081.688 0 .982-.442 1.032-.442l-.049.393h.884l.393-2.702c0-1.13-.982-1.179-1.375-1.179l-1.277.982zm2.013 1.13c0 .147-.589.933-1.179.933-.295 0-.393-.246-.393-.393 0-.246.147-.589.884-.589.196.049.688.049.688.049zM24.981 18.722h1.032c.295-1.621.344-2.947 1.032-2.702.098-.639.246-.884.344-1.13h-.196c-.442 0-.786.589-.786.589l.098-.54z"/></symbol><symbol id="icon-Order-add-cart" viewBox="0 0 32 32"><path fill="#f9c2d2" style="fill:var(--color31, #f9c2d2)" d="M26.375 27.25H8.562c-1.551 0-2.813-1.262-2.813-2.813s1.262-2.812 2.813-2.812h2.813L9.685 23.5H8.563a.939.939 0 0 0 0 1.876h17.813v1.875z"/><path fill="#f98aab" style="fill:var(--color32, #f98aab)" d="M17.938 25.375h8.438v1.875h-8.438v-1.875z"/><path fill="#f98aab" style="fill:var(--color32, #f98aab)" opacity=".5" d="m6.774 10.375-.838-3.75H0V4.75h7.439l1.624 7.273-2.29-1.648z"/><path fill="#f9c2d2" style="fill:var(--color31, #f9c2d2)" d="m21.966 10.696-.28-.321H6.778L9.688 23.5h16.478l3.304-12.786c-.642.16-4.439 3.505-7.505-.017zm4.716 3.311L26.167 16h-4.396l.238-2.86a6.68 6.68 0 0 0 4.673.867zM15.99 16l-.313-3.75h4.526L19.89 16h-3.901zm3.744 1.875-.313 3.75h-2.963l-.313-3.75h3.588zm-5.937-5.625L14.11 16H9.946l-.831-3.75h4.682zm-3.436 5.625h3.904l.313 3.75h-3.385l-.831-3.75zm10.941 3.75.313-3.75h4.068l-.969 3.75h-3.412z"/><path fill="#f98aab" style="fill:var(--color32, #f98aab)" d="m21.963 10.696-.28-.321h-3.745v1.875h2.263L19.888 16h-1.95v1.875h1.794l-.313 3.75h-1.482V23.5h8.226l3.304-12.786c-.642.16-4.439 3.505-7.505-.017zm2.749 10.929H21.3l.313-3.75h4.068l-.969 3.75zm1.968-7.618L26.165 16h-4.396l.238-2.86a6.68 6.68 0 0 0 4.673.867z"/><path fill="#665151" style="fill:var(--color33, #665151)" d="M12.313 31C10.762 31 9.5 29.738 9.5 28.187s1.262-2.812 2.813-2.812c1.551 0 2.813 1.262 2.813 2.812S13.864 31 12.313 31z"/><path fill="#4d3535" style="fill:var(--color34, #4d3535)" d="M21.688 31c-1.551 0-2.813-1.262-2.813-2.813s1.262-2.812 2.813-2.812c1.551 0 2.813 1.262 2.813 2.812S23.239 31 21.688 31z"/><path fill="#f9c2d2" style="fill:var(--color31, #f9c2d2)" d="M25.438 14.125c-3.719 0-6.563-3.038-6.563-6.563 0-3.618 2.944-6.563 6.563-6.563s6.563 2.944 6.563 6.563c0 3.706-3.011 6.563-6.563 6.563z"/><path fill="#fff7e6" style="fill:var(--color35, #fff7e6)" d="M12.313 29.125a.938.938 0 1 0 0-1.876.938.938 0 0 0 0 1.876z"/><path fill="#ffeacc" style="fill:var(--color36, #ffeacc)" d="M21.688 29.125a.938.938 0 1 0 0-1.876.938.938 0 0 0 0 1.876z"/><path fill="#f98aab" style="fill:var(--color32, #f98aab)" d="M32 7.563A6.57 6.57 0 0 0 25.437 1v13.125c3.552 0 6.563-2.856 6.563-6.563z"/><path fill="#fff" style="fill:var(--color29, #fff)" d="M28.25 6.625h-1.875V4.75H24.5v1.875h-1.875V8.5H24.5v1.875h1.875V8.5h1.875V6.625z"/><path fill="#fff" style="fill:var(--color29, #fff)" d="M25.438 4.75v5.625h.938V8.5h1.875V6.625h-1.875V4.75h-.938z"/></symbol><symbol id="icon-Order-select-food" viewBox="0 0 32 32"><path fill="#f98aab" style="fill:var(--color32, #f98aab)" d="M17.664 7.765c1.64-.681 2.522-2.267 2.123-3.818S17.815 1.294 16 1.294s-3.388 1.102-3.787 2.653.483 3.137 2.124 3.818h3.327z"/><path fill="#f98aab" style="fill:var(--color32, #f98aab)" d="M11.6 9.059a.503.503 0 0 1-.377-.172c-2.15-2.406-2.266-6.128-.27-8.678.116-.156.303-.233.489-.202s.34.167.404.353a.569.569 0 0 1-.096.545c-1.664 2.125-1.566 5.228.227 7.231.141.159.18.392.098.592s-.269.33-.475.33zM21.208 6.471c-.199 0-.383-.084-.486-.221s-.111-.308-.021-.451c1.04-1.637.773-3.618-.679-5.035-.136-.127-.176-.303-.105-.46s.241-.272.446-.298.411.039.539.17c1.742 1.701 2.063 4.078.815 6.044-.098.154-.294.251-.508.251z"/><path fill="#f98aab" style="fill:var(--color32, #f98aab)" d="M26.353 14.804v8.346s0 2.842-1.729 4.487a1.027 1.027 0 0 0-.299.749v1.618c-.002.582-.455 1.053-1.014 1.055h-8.114c-.56-.002-1.013-.473-1.014-1.055v-.195a3.197 3.197 0 0 0-.908-2.246c-.979-.991-2.49-2.705-3.149-4.413-1.014-2.636-3.043-6.327-4.057-7.381s0-2.109 1.014-2.109 3.043 2.109 4.057 3.691c.323.509.701.978 1.126 1.397.252.244.607.337.941.248s.6-.35.707-.691c.193-.65.284-1.329.269-2.009V4.17c-.003-.67.405-1.268 1.014-1.487.162-.064.334-.096.507-.095.84 0 1.522.708 1.522 1.582v6.327c-.003-.67.405-1.268 1.014-1.487.162-.064.334-.096.507-.095.84 0 1.521.708 1.521 1.582v1.582c0-.419.161-.822.446-1.118a1.43 1.43 0 0 1 .568-.369c.162-.064.334-.096.507-.095.84 0 1.521.708 1.521 1.582v2.636c0-.419.16-.822.446-1.118a1.43 1.43 0 0 1 .568-.369c.198-.075.409-.106.619-.089.815.09 1.427.814 1.41 1.666z"/><path fill="#f8edf0" style="fill:var(--color37, #f8edf0)" d="M16.028 2.621a1.452 1.452 0 0 0-.522.094 1.551 1.551 0 0 0-1.045 1.473v12.015a6.24 6.24 0 0 1-.277 1.99 1.06 1.06 0 0 1-.47.575 1.04 1.04 0 0 0 1.515-.574 6.24 6.24 0 0 0 .277-1.99V4.189a1.55 1.55 0 0 1 1.045-1.473 1.458 1.458 0 0 0-.523-.094zM18.641 8.984a1.551 1.551 0 0 0-1.045 1.473v4.702a.522.522 0 1 0 1.045 0v-4.702a1.55 1.55 0 0 1 1.045-1.473 1.503 1.503 0 0 0-1.045 0zM21.781 10.552a1.565 1.565 0 0 0-1.045 1.473v3.135a.522.522 0 1 0 1.045 0v-3.135a1.551 1.551 0 0 1 1.045-1.473 1.503 1.503 0 0 0-1.045 0zM25.436 13.069a1.452 1.452 0 0 0-.522.094 1.565 1.565 0 0 0-1.045 1.473v1.045a.523.523 0 1 0 1.045 0v-1.045a1.551 1.551 0 0 1 1.045-1.473 1.456 1.456 0 0 0-.522-.094zM24.412 18.118c-.357 0-.647.217-.647.485v2.912c0 .268.29.485.647.485s.647-.217.647-.485v-2.912c0-.268-.29-.485-.647-.485zM24.64 23.294c-.232.005-.422.276-.44.623-.032.329-.14.63-.304.852-.112.162-.156.403-.117.629s.157.403.307.462.31-.008.418-.177c.327-.456.526-1.083.555-1.752 0-.349-.187-.633-.419-.638zM16.863 28.471h-.431c-.238 0-.431.29-.431.647s.193.647.431.647h.431c.238 0 .431-.29.431-.647s-.193-.647-.431-.647zM22.039 28.471h-3.02c-.238 0-.431.29-.431.647s.193.647.431.647h3.02c.238 0 .431-.29.431-.647s-.193-.647-.431-.647z"/></symbol><symbol id="icon-Paypall" viewBox="0 0 32 32"><path fill="#03a9f4" style="fill:var(--color38, #03a9f4)" d="M26.43 7.359a.664.664 0 0 0-1 .503 7.268 7.268 0 0 1-.108.667c-1.305 5.924-3.927 8.805-8.016 8.805h-6a.667.667 0 0 0-.652.533l-2 9.375-.357 2.387a2 2 0 0 0 1.956 2.372h4.013a1.99 1.99 0 0 0 1.94-1.519l1.621-6.481h3.479c4.105 0 6.943-3.273 7.989-9.217A6.968 6.968 0 0 0 26.43 7.36z"/><path fill="#283593" style="fill:var(--color39, #283593)" d="M25.171 2.376A7.017 7.017 0 0 0 19.971 0H8.931a3.317 3.317 0 0 0-3.299 2.835L2.204 25.703A2 2 0 0 0 4.184 28h5.12a.667.667 0 0 0 .652-.533l1.887-8.8h5.467c4.744 0 7.879-3.316 9.319-9.867.058-.261.102-.525.133-.791a6.884 6.884 0 0 0-1.591-5.633z"/></symbol><symbol id="icon-Visa" viewBox="0 0 32 32"><path fill="#2394bc" style="fill:var(--color40, #2394bc)" d="m13.056 11.026-1.553 9.664h2.482l1.552-9.664h-2.481zm7.488 3.937c-.868-.428-1.399-.717-1.399-1.156.011-.398.45-.806 1.43-.806a4.32 4.32 0 0 1 1.849.358l.225.101.337-2.022a6.256 6.256 0 0 0-2.228-.398c-2.451 0-4.178 1.275-4.188 3.097-.02 1.345 1.236 2.092 2.176 2.539.96.459 1.287.757 1.287 1.165-.011.627-.776.916-1.491.916-.99 0-1.522-.149-2.33-.498l-.327-.149-.347 2.101c.583.259 1.655.487 2.769.499 2.605 0 4.3-1.255 4.322-3.198.009-1.066-.654-1.882-2.085-2.549zm8.806-3.907h-1.921c-.592 0-1.041.17-1.298.778l-3.687 8.857h2.605l.717-1.918h2.915l.372 1.925h2.298l-2.002-9.642zm-2.86 5.782c.05.005 1-3.13 1-3.13l.756 3.13H26.49zM9.429 11.026l-2.432 6.566-.265-1.295c-.45-1.494-1.86-3.118-3.433-3.924l2.227 8.308h2.626l3.903-9.654-2.626-.001z"/><path fill="#efc75e" style="fill:var(--color41, #efc75e)" d="M5.914 12.273c-.19-.737-.794-1.234-1.615-1.245H.447l-.04.179c3.005.741 5.527 3.02 6.345 5.164l-.838-4.098z"/></symbol></defs></svg>